<svg version="1.1" id="Layer_1" xmlns="http://www.w3.org/2000/svg" xmlns:xlink="http://www.w3.org/1999/xlink" x="0px" y="0px"
	 width="100%" viewBox="0 0 184 170" enable-background="new 0 0 184 170" xml:space="preserve">
<path fill="#000000" opacity="1.000000" stroke="none" 
	d="
M112.000000,171.000000 
	C74.666672,171.000000 37.833336,171.000000 1.000005,171.000000 
	C1.000003,114.333336 1.000003,57.666679 1.000002,1.000013 
	C62.333324,1.000008 123.666649,1.000008 184.999969,1.000004 
	C184.999985,57.666656 184.999985,114.333313 185.000000,170.999985 
	C160.833328,171.000000 136.666672,171.000000 112.000000,171.000000 
M38.670975,8.143457 
	C35.542847,8.095558 32.410183,7.918886 29.287615,8.028868 
	C24.146601,8.209939 19.012121,8.576547 13.106505,8.845747 
	C12.070960,9.897291 11.035415,10.948835 9.685001,12.708830 
	C8.015428,20.108345 10.956316,23.931845 18.436115,23.997643 
	C23.768282,24.044548 29.127775,23.709068 34.418617,24.179359 
	C36.155811,24.333775 38.797039,26.207706 39.189247,27.759321 
	C43.000099,42.835262 46.555702,57.979977 49.916424,73.164314 
	C53.626637,89.927711 57.028446,106.759270 60.692680,123.533165 
	C60.868973,124.340195 62.507751,125.601608 63.079987,125.422157 
	C66.677223,124.294113 70.524925,123.335426 73.539719,121.241020 
	C75.080925,120.170334 75.065178,116.858467 75.769485,114.504890 
	C89.265999,113.037819 102.796486,111.345345 116.371078,110.156227 
	C128.990143,109.050812 141.659531,108.529854 154.299850,107.652046 
	C158.980118,107.327026 163.288620,103.630241 164.566208,98.798981 
	C168.977600,82.117172 173.324173,65.417877 177.596603,48.699989 
	C178.425293,45.457348 178.263153,42.341045 173.794800,40.276699 
	C172.146469,40.186577 170.498199,40.018635 168.849823,40.017792 
	C133.787079,39.999893 98.724289,40.016914 63.661652,39.953655 
	C61.770050,39.950241 59.879601,39.304195 57.896267,38.191628 
	C56.320530,32.472137 54.978237,26.674757 53.103115,21.055164 
	C51.243851,15.483073 47.682590,11.319474 41.251999,9.332789 
	C40.522469,9.200339 39.792938,9.067889 38.670975,8.143457 
M115.689217,138.439697 
	C115.421188,139.223770 115.136719,140.002655 114.887711,140.792709 
	C112.643631,147.912842 113.920837,154.559128 119.219543,159.598846 
	C125.255730,165.339996 132.702652,166.029053 140.135864,162.261520 
	C146.603928,158.983139 149.542999,153.073242 149.969345,146.096939 
	C150.384247,139.307953 142.791443,129.957825 135.862030,128.066452 
	C128.582138,126.079414 120.324722,130.056885 115.689217,138.439697 
M95.027008,147.262817 
	C95.919395,137.289047 87.418091,129.757065 80.121590,128.110703 
	C71.669342,126.203529 62.309868,132.074051 59.610107,140.908859 
	C57.228500,148.702530 61.037205,160.856689 69.802048,163.037491 
	C83.391373,166.418655 92.326065,160.824753 95.027008,147.262817 
z"/>
<path fill="#040404" opacity="1.000000" stroke="none" 
	d="
M41.558945,10.029279 
	C47.682590,11.319474 51.243851,15.483073 53.103115,21.055164 
	C54.978237,26.674757 56.320530,32.472137 57.860947,39.024395 
	C58.917767,40.285362 60.009563,41.086769 61.102093,41.087761 
	C98.824081,41.122013 136.546143,41.080647 174.268188,41.050091 
	C178.263153,42.341045 178.425293,45.457348 177.596603,48.699989 
	C173.324173,65.417877 168.977600,82.117172 164.566208,98.798981 
	C163.288620,103.630241 158.980118,107.327026 154.299850,107.652046 
	C141.659531,108.529854 128.990143,109.050812 116.371078,110.156227 
	C102.796486,111.345345 89.265999,113.037819 75.769485,114.504890 
	C75.065178,116.858467 75.080925,120.170334 73.539719,121.241020 
	C70.524925,123.335426 66.677223,124.294113 63.079987,125.422157 
	C62.507751,125.601608 60.868973,124.340195 60.692680,123.533165 
	C57.028446,106.759270 53.626637,89.927711 49.916424,73.164314 
	C46.555702,57.979977 43.000099,42.835262 39.189247,27.759321 
	C38.797039,26.207706 36.155811,24.333775 34.418617,24.179359 
	C29.127775,23.709068 23.768282,24.044548 18.436115,23.997643 
	C10.956316,23.931845 8.015428,20.108345 10.195971,12.410500 
	C11.804501,11.379189 12.902061,10.646209 14.457920,9.804426 
	C22.881931,9.660479 30.847647,9.625334 39.242805,9.797096 
	C40.301147,10.012429 40.930046,10.020854 41.558945,10.029279 
z"/>
<path fill="#0F0F0F" opacity="1.000000" stroke="none" 
	d="
M115.788200,138.063873 
	C120.324722,130.056885 128.582138,126.079414 135.862030,128.066452 
	C142.791443,129.957825 150.384247,139.307953 149.969345,146.096939 
	C149.542999,153.073242 146.603928,158.983139 140.135864,162.261520 
	C132.702652,166.029053 125.255730,165.339996 119.219543,159.598846 
	C113.920837,154.559128 112.643631,147.912842 114.887711,140.792709 
	C115.136719,140.002655 115.421188,139.223770 115.788200,138.063873 
M138.656342,146.363403 
	C137.877991,144.937164 137.370575,143.239655 136.267792,142.138245 
	C133.537430,139.411255 130.222153,139.236008 127.276695,141.620102 
	C124.592430,143.792786 124.437286,146.645020 126.421066,149.602722 
	C129.940933,154.850632 134.022797,153.992966 138.656342,146.363403 
z"/>
<path fill="#101010" opacity="1.000000" stroke="none" 
	d="
M95.017639,147.684113 
	C92.326065,160.824753 83.391373,166.418655 69.802048,163.037491 
	C61.037205,160.856689 57.228500,148.702530 59.610107,140.908859 
	C62.309868,132.074051 71.669342,126.203529 80.121590,128.110703 
	C87.418091,129.757065 95.919395,137.289047 95.017639,147.684113 
M80.406898,141.243820 
	C77.496132,139.100113 74.669334,139.076309 72.173248,141.826706 
	C70.006866,144.213821 70.338066,149.683945 72.786270,151.668930 
	C76.179184,154.419876 79.407082,152.419571 81.717873,150.271591 
	C84.606689,147.586273 83.848366,144.305832 80.406898,141.243820 
z"/>
<path fill="#C3C3C3" opacity="1.000000" stroke="none" 
	d="
M174.031494,40.663395 
	C136.546143,41.080647 98.824081,41.122013 61.102093,41.087761 
	C60.009563,41.086769 58.917767,40.285362 57.907124,39.407227 
	C59.879601,39.304195 61.770050,39.950241 63.661652,39.953655 
	C98.724289,40.016914 133.787079,39.999893 168.849823,40.017792 
	C170.498199,40.018635 172.146469,40.186577 174.031494,40.663395 
z"/>
<path fill="#EBEBEB" opacity="1.000000" stroke="none" 
	d="
M38.813362,9.590188 
	C30.847647,9.625334 22.881931,9.660479 14.503920,9.533171 
	C14.019377,9.202124 13.947131,9.033532 13.874887,8.864941 
	C19.012121,8.576547 24.146601,8.209939 29.287615,8.028868 
	C32.410183,7.918886 35.542847,8.095558 38.699753,8.663064 
	C38.728527,9.182671 38.813362,9.590188 38.813362,9.590188 
z"/>
<path fill="#8F8F8F" opacity="1.000000" stroke="none" 
	d="
M13.490696,8.855345 
	C13.947131,9.033532 14.019377,9.202124 14.045623,9.641972 
	C12.902061,10.646209 11.804501,11.379189 10.353405,12.056275 
	C11.035415,10.948835 12.070960,9.897291 13.490696,8.855345 
z"/>
<path fill="#8F8F8F" opacity="1.000000" stroke="none" 
	d="
M39.242805,9.797096 
	C38.813362,9.590188 38.728527,9.182671 38.895966,9.059055 
	C39.792938,9.067889 40.522469,9.200339 41.405472,9.681034 
	C40.930046,10.020854 40.301147,10.012429 39.242805,9.797096 
z"/>
<path fill="#000000" opacity="1.000000" stroke="none" 
	d="
M138.532654,146.697311 
	C134.022797,153.992966 129.940933,154.850632 126.421066,149.602722 
	C124.437286,146.645020 124.592430,143.792786 127.276695,141.620102 
	C130.222153,139.236008 133.537430,139.411255 136.267792,142.138245 
	C137.370575,143.239655 137.877991,144.937164 138.532654,146.697311 
z"/>
<path fill="#000000" opacity="1.000000" stroke="none" 
	d="
M80.691803,141.442566 
	C83.848366,144.305832 84.606689,147.586273 81.717873,150.271591 
	C79.407082,152.419571 76.179184,154.419876 72.786270,151.668930 
	C70.338066,149.683945 70.006866,144.213821 72.173248,141.826706 
	C74.669334,139.076309 77.496132,139.100113 80.691803,141.442566 
z"/>
</svg>